<svg width="160" height="160" viewBox="0 0 160 160" fill="none" xmlns="http://www.w3.org/2000/svg">
<g clip-path="url(#clip0_7836_307)">
<mask id="mask0_7836_307" style="mask-type:alpha" maskUnits="userSpaceOnUse" x="0" y="0" width="160" height="160">
<path d="M55.0332 0.74707H104.967C120.841 0.74707 128.638 0.753322 137.03 3.40527C146.116 6.72045 153.278 13.8771 156.594 22.9688C159.246 31.3614 159.253 39.1579 159.253 55.0332V104.967C159.253 120.842 159.246 128.638 156.594 137.03C153.278 146.116 146.122 153.279 137.03 156.594C128.638 159.246 120.842 159.253 104.967 159.253H55.0332C39.1579 159.253 31.3614 159.246 22.9688 156.594C13.8834 153.278 6.72028 146.122 3.40527 137.03C0.753322 128.638 0.74707 120.841 0.74707 104.967V55.0332C0.74707 39.1581 0.753045 31.3613 3.40527 22.9688C6.72062 13.8835 13.8773 6.72045 22.9688 3.40527C31.3613 0.753045 39.1581 0.74707 55.0332 0.74707Z" fill="#341009" stroke="black" stroke-width="1.49324"/>
</mask>
<g mask="url(#mask0_7836_307)">
<rect y="-0.0100098" width="160" height="160" fill="#611D11"/>
<path d="M171.414 73.5246C171.414 120.029 124.919 143.412 74.273 143.412C63.196 143.412 53.7829 142.65 45.2672 141.033L44.2296 142.594C29.2826 164.88 20.1499 169.285 10.1853 169.285C-3.37822 169.285 -15.8293 157.733 2.98755 129.936L29.5537 90.8663C49.4829 61.7032 73.2822 53.9989 87.3972 53.9989C97.3618 53.9989 99.5772 59.5006 93.2114 69.1287L65.9536 110.011C67.7951 110.095 69.7113 110.132 71.7865 110.132C101.952 110.132 128.247 97.1952 128.247 74.9093C128.247 55.3743 105.55 43.5437 72.8989 43.5437C27.2355 43.5437 -10.1553 68.0321 -10.1553 85.9221C-10.1553 95.0019 -0.901085 96.6562 -0.901085 105.457C-0.901085 112.613 -7.77163 121.962 -23.1018 121.962C-42.6759 121.953 -58.0061 108.747 -58.0061 87.8273C-58.0061 42.4284 6.48359 9.68735 72.8896 9.68735C132.117 9.68735 171.414 34.4546 171.414 73.5246Z" fill="#F9593B"/>
</g>
</g>
<defs>
<clipPath id="clip0_7836_307">
<rect width="160" height="160" fill="white"/>
</clipPath>
</defs>
</svg>
